<?xml version="1.0" encoding="utf-8"?>
<!-- Generator: Adobe Illustrator 25.4.1, SVG Export Plug-In . SVG Version: 6.00 Build 0)  -->
<svg version="1.1" id="Capa_1" xmlns="http://www.w3.org/2000/svg" xmlns:xlink="http://www.w3.org/1999/xlink" x="0px" y="0px"
	 viewBox="0 0 841.9 595.3" style="enable-background:new 0 0 841.9 595.3;" xml:space="preserve">
<style type="text/css">
	.st0{fill:#A02142;}
	.st1{fill:#691B32;}
</style>
<g>
	<path class="st0" d="M272.2,32.5l0,110.3l62.8,62.8l0-117.8l-57.5-57.5C275.5,28.4,272.2,29.8,272.2,32.5L272.2,32.5z"/>
	<polygon class="st0" points="346.1,99 346.1,216.7 408.9,279.5 408.9,161.8 	"/>
	<polygon class="st1" points="431.1,161.8 431.1,279.6 493.9,216.7 493.9,99 	"/>
	<g>
		<path class="st1" d="M505,87.9v117.8l62.8-62.8l0-110.3c0-2.8-3.3-4.1-5.3-2.2L505,87.9z"/>
		<path class="st0" d="M505,391.4l0,117.8l57.5,57.5c2,2,5.3,0.6,5.3-2.2V454.2L505,391.4z"/>
	</g>
	<polygon class="st0" points="431.1,317.4 431.1,435.2 493.9,498 493.9,380.3 	"/>
	<polygon class="st1" points="346.1,380.3 346.1,498 408.9,435.2 408.9,317.5 	"/>
	<g>
		<path class="st1" d="M272.2,454.2v110.3c0,2.8,3.3,4.1,5.3,2.2l57.5-57.5V391.4L272.2,454.2z"/>
		<path class="st0" d="M154,446.3l110.3,0l62.8-62.8l-117.8,0L151.8,441C149.9,443,151.3,446.3,154,446.3L154,446.3z"/>
	</g>
	<polygon class="st0" points="220.5,372.4 338.2,372.4 401,309.6 283.3,309.6 	"/>
	<polygon class="st1" points="220.5,224.6 283.3,287.4 401,287.4 338.2,224.6 	"/>
	<g>
		<path class="st1" d="M151.8,156l57.5,57.5l117.8,0l-62.8-62.8l-110.3,0C151.3,150.7,149.9,154,151.8,156L151.8,156z"/>
		<path class="st0" d="M512.9,213.5l117.8,0l57.5-57.5c2-2,0.6-5.3-2.2-5.3l-110.3,0L512.9,213.5z"/>
	</g>
	<polygon class="st0" points="439,287.4 556.7,287.4 619.6,224.6 501.8,224.6 	"/>
	<polygon class="st1" points="439,309.6 501.8,372.4 619.6,372.4 556.7,309.6 	"/>
	<g>
		<path class="st1" d="M512.9,383.5l62.8,62.8l110.3,0c2.8,0,4.1-3.3,2.2-5.3l-57.5-57.5L512.9,383.5z"/>
	</g>
</g>
</svg>
